# xmcd
#
# Track frame offsets:
#	150
#	10680
#	21092
#	35575
#	51367
#	64782
#	78685
#	95897
#	110347
#	121875
#	134795
#	150817
#	163662
#	176280
#
# Disc length: 2541
#
# Revision: 1
# Processed by: cddbd v1.5.1PL0 Copyright (c) Steve Scherf et al.
# Submitted via: VisiTrax 2.9.5.180 - For more info visit www.synapsa.com
# Normalized: r0:DSETVAR1
#
DISCID=b309eb0e
DTITLE=Various Artist - Mr Music Country 8-92
DYEAR=1992
DGENRE=Country
TTITLE0=Walt Conklin - Kicking Saturday Night
TTITLE1=Ronnie McDowell with Conway Twitty - It's only Make Believe
TTITLE2=Wanda Jackson with Jann Browne - I Forgot More Than You'll ever Know
TTITLE3=Tony Toliver with Merle Haggard - Swinging Doors
TTITLE4=Debra Burns - Run Away Heart
TTITLE5=Josh Logan - Dallas, FT. Worth Airport
TTITLE6=Dessert Rose Band - Missing You
TTITLE7=Merle Haggard - Me And crippled Soldiers
TTITLE8=Jann Browne - It Only Hurts When I laugh
TTITLE9=Duncan - Years In Making
TTITLE10=Buck Owens - They'd Have To Carry Me Away
TTITLE11=Becky Hobbs - Talk back Trembling lips
TTITLE12=Ernie Bivens III - Bigger Than Both Of Us
TTITLE13=Jason Hawkins - I will
EXTD=
EXTT0=
EXTT1=
EXTT2=
EXTT3=
EXTT4=
EXTT5=
EXTT6=
EXTT7=
EXTT8=
EXTT9=
EXTT10=
EXTT11=
EXTT12=
EXTT13=
PLAYORDER=
